<svg height="300" viewBox="0 0 1012 300" width="1012" xmlns="http://www.w3.org/2000/svg">
  <style>
    .b {fill: #0d1117}
    .l {fill: #fff}
    @media (prefers-color-scheme: light) {
      .b {fill: #fff}
      .l {fill: #0d1117}
    }
  </style>
  <rect class="b" height="300" width="1012" x="0" y="0"/>
  <path d="M372.63 173.31L372.63 150.66Q372.63 145.97 370.88 143.60Q369.14 141.23 365.68 141.23L365.68 141.23Q363.25 141.23 361.41 142.51Q359.56 143.80 358.92 145.97L358.92 145.97L358.50 145.97Q358.01 143.72 356.47 142.47Q354.93 141.23 352.67 141.23L352.67 141.23Q350.51 141.23 348.88 142.50Q347.25 143.77 346.64 145.97L346.64 145.97L346.23 145.97L346.23 141.75L342.74 141.75L342.74 173.31L346.35 173.31L346.35 152.18Q346.35 148.70 347.71 146.69Q349.07 144.68 351.44 144.68L351.44 144.68Q353.70 144.68 354.83 146.40Q355.96 148.11 355.96 151.51L355.96 151.51L355.96 173.31L359.56 173.31L359.56 152.18Q359.56 148.67 360.89 146.67Q362.23 144.68 364.54 144.68L364.54 144.68Q366.77 144.68 367.89 146.41Q369.02 148.14 369.02 151.54L369.02 151.54L369.02 173.31L372.63 173.31ZM395.36 133.40L395.36 133.40Q396.85 133.40 397.92 132.33Q398.99 131.26 398.99 129.77L398.99 129.77Q398.99 128.28 397.92 127.21Q396.85 126.14 395.36 126.14L395.36 126.14Q393.87 126.14 392.80 127.21Q391.73 128.28 391.73 129.77L391.73 129.77Q391.73 131.26 392.80 132.33Q393.87 133.40 395.36 133.40ZM382.76 173.31L408.51 173.31L408.51 170.20L397.70 170.20L397.70 141.75L382.70 141.75L382.70 144.86L393.87 144.86L393.87 170.20L382.76 170.20L382.76 173.31ZM440.77 151.04L444.58 151.04Q443.96 146.59 440.64 143.91Q437.31 141.23 432.42 141.23L432.42 141.23Q426.21 141.23 422.68 144.96Q419.15 148.70 419.15 155.29L419.15 155.29L419.15 159.77Q419.15 166.36 422.68 170.10Q426.21 173.83 432.42 173.83L432.42 173.83Q437.31 173.83 440.64 171.14Q443.96 168.44 444.58 164.02L444.58 164.02L440.77 164.02Q440.30 166.83 437.93 168.60Q435.56 170.38 432.33 170.38L432.33 170.38Q427.82 170.38 425.40 167.46Q422.99 164.55 422.99 159.13L422.99 159.13L422.99 155.93Q422.99 150.51 425.40 147.60Q427.82 144.68 432.33 144.68L432.33 144.68Q435.56 144.68 437.93 146.46Q440.30 148.23 440.77 151.04L440.77 151.04ZM467.46 173.31L467.46 159.13Q467.46 152.65 470.48 148.81Q473.50 144.98 478.59 144.98L478.59 144.98Q479.88 144.98 481.29 145.21Q482.69 145.44 483.78 145.85L483.78 145.85L483.78 141.67Q483.05 141.34 481.80 141.15Q480.56 140.96 479.18 140.96L479.18 140.96Q474.58 140.96 471.59 143.26Q468.60 145.56 467.78 149.78L467.78 149.78L467.37 149.78L467.37 141.75L456.47 141.75L456.47 144.86L463.62 144.86L463.62 173.31L467.46 173.31ZM457.12 173.31L477.48 173.31L477.48 170.20L457.12 170.20L457.12 173.31ZM506.04 173.83L506.04 173.83Q510.12 173.83 513.12 172.12Q516.12 170.41 517.76 167.27Q519.40 164.14 519.40 159.89L519.40 159.89L519.40 155.20Q519.40 150.95 517.76 147.82Q516.12 144.68 513.12 142.97Q510.12 141.25 506.04 141.25L506.04 141.25Q501.97 141.25 498.97 142.97Q495.97 144.68 494.33 147.82Q492.68 150.95 492.68 155.20L492.68 155.20L492.68 159.89Q492.68 164.14 494.33 167.27Q495.97 170.41 498.97 172.12Q501.97 173.83 506.04 173.83ZM506.04 144.68L506.04 144.68Q510.44 144.68 513.00 147.63Q515.57 150.57 515.57 155.70L515.57 155.70L515.57 159.39Q515.57 164.52 513.00 167.46Q510.44 170.41 506.04 170.41L506.04 170.41Q501.65 170.41 499.09 167.46Q496.52 164.52 496.52 159.39L496.52 159.39L496.52 155.70Q496.52 150.57 499.09 147.63Q501.65 144.68 506.04 144.68Z" fill="#d80303" />
  <path class="l" d="M558.08 173.31L558.08 150.66Q558.08 145.97 556.33 143.60Q554.59 141.23 551.13 141.23L551.13 141.23Q548.70 141.23 546.85 142.51Q545.01 143.80 544.36 145.97L544.36 145.97L543.95 145.97Q543.46 143.72 541.92 142.47Q540.38 141.23 538.12 141.23L538.12 141.23Q535.96 141.23 534.33 142.50Q532.70 143.77 532.09 145.97L532.09 145.97L531.68 145.97L531.68 141.75L528.19 141.75L528.19 173.31L531.80 173.31L531.80 152.18Q531.80 148.70 533.16 146.69Q534.52 144.68 536.89 144.68L536.89 144.68Q539.15 144.68 540.28 146.40Q541.41 148.11 541.41 151.51L541.41 151.51L541.41 173.31L545.01 173.31L545.01 152.18Q545.01 148.67 546.34 146.67Q547.67 144.68 549.99 144.68L549.99 144.68Q552.22 144.68 553.34 146.41Q554.47 148.14 554.47 151.54L554.47 151.54L554.47 173.31L558.08 173.31ZM577.44 173.86L577.44 173.86Q581.01 173.86 583.55 172.44Q586.08 171.02 587.20 168.35L587.20 168.35L587.61 168.35L587.61 173.33L591.30 173.33L591.30 151.66Q591.30 146.85 588.32 144.17Q585.35 141.49 579.99 141.49L579.99 141.49Q576.94 141.49 574.47 142.53Q571.99 143.57 570.42 145.39Q568.86 147.20 568.56 149.58L568.56 149.58L572.37 149.58Q573.05 147.29 575.02 146.06Q577.00 144.83 579.99 144.83L579.99 144.83Q583.62 144.83 585.53 146.63Q587.43 148.43 587.43 151.83L587.43 151.83L587.43 154.82L578.29 155.23Q573.08 155.46 570.22 157.85Q567.36 160.24 567.36 164.40L567.36 164.40Q567.36 168.68 570.13 171.27Q572.90 173.86 577.44 173.86ZM578.38 170.46L578.38 170.46Q575.10 170.46 573.21 168.84Q571.32 167.21 571.32 164.40L571.32 164.40Q571.32 158.72 578.55 158.39L578.55 158.39L587.43 158.01L587.43 162.41Q587.43 164.66 586.23 166.49Q585.03 168.33 582.98 169.39Q580.93 170.46 578.38 170.46ZM615.82 173.31L615.82 159.13Q615.82 152.65 618.84 148.81Q621.85 144.98 626.95 144.98L626.95 144.98Q628.24 144.98 629.65 145.21Q631.05 145.44 632.14 145.85L632.14 145.85L632.14 141.67Q631.41 141.34 630.16 141.15Q628.92 140.96 627.54 140.96L627.54 140.96Q622.94 140.96 619.95 143.26Q616.96 145.56 616.14 149.78L616.14 149.78L615.73 149.78L615.73 141.75L604.83 141.75L604.83 144.86L611.98 144.86L611.98 173.31L615.82 173.31ZM605.48 173.31L625.84 173.31L625.84 170.20L605.48 170.20L605.48 173.31ZM663.51 141.75L648.69 156.61L648.34 156.61L648.34 129.18L644.50 129.18L644.50 173.31L648.34 173.31L648.34 161.35L653.93 155.90L654.87 155.00L668.38 141.75L663.51 141.75ZM655.40 153.24L652.62 155.73L664.63 173.31L669.26 173.31L655.40 153.24Z" />
</svg>
