<svg xmlns="http://www.w3.org/2000/svg" width="400" height="400" viewBox="0 0 410 210">
  <path fill="#d80303" d="M6.57 126L13.96 126L13.96 97.38C13.96 90.55 18.30 86.77 23.85 86.77C29.99 86.77 33.69 90.55 33.69 97.47L33.69 126L41.04 126L41.04 97.47C41.04 91.20 44.60 86.77 51.00 86.77C57.45 86.77 60.76 91.02 60.76 96.78L60.76 126L68.11 126L68.11 95.28C68.11 86.00 62.48 80.11 52.94 80.11C45.59 80.11 40.82 83.50 39.10 87.37L38.76 87.37C37.00 82.95 32.79 80.11 25.74 80.11C19.77 80.11 15.77 83.29 14.31 86.38L13.92 86.38L13.92 80.84L6.57 80.84ZM81.51 126L88.90 126L88.90 80.84L81.51 80.84ZM80.48 69.97C80.48 72.59 82.59 74.65 85.21 74.65C87.83 74.65 89.98 72.59 89.98 69.97C89.98 67.30 87.83 65.24 85.21 65.24C82.59 65.24 80.48 67.30 80.48 69.97ZM100.72 105.46C100.72 117.49 107.46 126.73 119.45 126.73C129.81 126.73 135.48 121.32 136.98 113.58L129.72 113.58C128.91 117.19 125.60 120.20 119.97 120.20C112.75 120.20 108.11 114.36 108.11 105.50L108.11 101.29C108.11 92.18 112.45 86.64 119.93 86.64C124.82 86.64 128.39 90.12 129.38 93.95L136.64 93.95C136.25 87.03 129.89 80.11 119.45 80.11C107.68 80.11 100.72 88.83 100.72 100.99ZM147.30 126L154.73 126L154.73 98.03C154.73 91.93 157.22 86.94 165.21 86.94C166.59 86.94 168.05 86.98 168.82 87.11L168.82 80.37C167.92 80.24 166.98 80.15 166.03 80.15C159.63 80.15 156.23 83.68 154.90 86.38L154.69 86.38L154.69 80.84L147.30 80.84ZM194.69 80.11C182.06 80.11 175.27 89.26 175.27 101.34L175.27 105.38C175.27 117.62 182.02 126.73 194.69 126.73C207.37 126.73 214.03 117.62 214.03 105.38L214.03 101.34C214.03 89.26 207.32 80.11 194.69 80.11ZM194.69 86.43C202.43 86.43 206.64 92.36 206.64 101.59L206.64 105.12C206.64 114.36 202.43 120.33 194.69 120.33C186.91 120.33 182.66 114.31 182.66 105.12L182.66 101.59C182.66 92.36 186.91 86.43 194.69 86.43Z"/>
  <path d="M225.41 126L232.80 126L232.80 97.38C232.80 90.55 237.14 86.77 242.69 86.77C248.83 86.77 252.53 90.55 252.53 97.47L252.53 126L259.88 126L259.88 97.47C259.88 91.20 263.44 86.77 269.84 86.77C276.29 86.77 279.60 91.02 279.60 96.78L279.60 126L286.95 126L286.95 95.28C286.95 86.00 281.32 80.11 271.78 80.11C264.43 80.11 259.66 83.50 257.94 87.37L257.60 87.37C255.84 82.95 251.63 80.11 244.58 80.11C238.61 80.11 234.61 83.29 233.15 86.38L232.76 86.38L232.76 80.84L225.41 80.84ZM325.14 120.37L325.36 120.37L325.36 126L332.45 126L332.45 94.85C332.45 85.35 325.45 80.11 315.82 80.11C304.91 80.11 299.54 85.87 299.06 93.77L306.02 93.77C306.45 89.26 309.76 86.30 315.56 86.30C321.66 86.30 325.10 89.56 325.10 95.49L325.10 100.09L313.20 100.09C302.84 100.13 297.34 105.12 297.34 113.02C297.34 121.32 303.36 126.73 312.08 126.73C318.74 126.73 322.87 124.02 325.14 120.37ZM314.06 120.59C309.33 120.59 304.91 118.09 304.91 112.77C304.91 108.68 307.57 105.76 313.76 105.76L325.10 105.76L325.10 111.00C325.10 116.63 320.38 120.59 314.06 120.59ZM345.21 126L352.64 126L352.64 98.03C352.64 91.93 355.14 86.94 363.13 86.94C364.50 86.94 365.96 86.98 366.74 87.11L366.74 80.37C365.84 80.24 364.89 80.15 363.95 80.15C357.54 80.15 354.15 83.68 352.82 86.38L352.60 86.38L352.60 80.84L345.21 80.84ZM382.51 109.71L386.68 105.16L402.02 126L411.08 126L392.13 100.48L409.96 80.84L400.81 80.84L382.81 100.82L382.51 100.82L382.51 64.25L375.12 64.25L375.12 126L382.51 126Z"/>
</svg>